HIERARCHY
ROOT hip
{
  OFFSET 5.70873 43.8894 -1.52928
  CHANNELS 6 Xposition Yposition Zposition Zrotation Xrotation Yrotation
  JOINT abdomen
  {
    OFFSET 0 5.99393 0.287273
    CHANNELS 6 Xposition Yposition Zposition Zrotation Xrotation Yrotation
    JOINT chest
    {
      OFFSET 0 6.65865 -0.856112
      CHANNELS 6 Xposition Yposition Zposition Zrotation Xrotation Yrotation
      JOINT neck
      {
        OFFSET 0 8.65624 -1.42685
        CHANNELS 6 Xposition Yposition Zposition Zrotation Xrotation Yrotation
        JOINT head
        {
          OFFSET 0 3.80999 -0.190247
          CHANNELS 6 Xposition Yposition Zposition Zrotation Xrotation Yrotation
          End Site
          {
            OFFSET 0 0 0
          }
        }
      }
      JOINT rCollar
      {
        OFFSET -1.4963 7.5744 -1.52136
        CHANNELS 6 Xposition Yposition Zposition Zrotation Xrotation Yrotation
        JOINT rShldr
        {
          OFFSET -5.47506 -0.905672 0.485692
          CHANNELS 6 Xposition Yposition Zposition Zrotation Xrotation Yrotation
          JOINT rForeArm
          {
            OFFSET -11.3069 -0.201091 0.618544
            CHANNELS 6 Xposition Yposition Zposition Zrotation Xrotation Yrotation
            JOINT rHand
            {
              OFFSET -9.61414 -0.254739 3.48553
              CHANNELS 6 Xposition Yposition Zposition Zrotation Xrotation Yrotation
              JOINT rThumb1
              {
                OFFSET 0.176263 -0.07068 1.26622
                CHANNELS 6 Xposition Yposition Zposition Zrotation Xrotation Yrotation
                JOINT rThumb2
                {
                  OFFSET -1.04683 -0.546484 1.82182
                  CHANNELS 6 Xposition Yposition Zposition Zrotation Xrotation Yrotation
                  JOINT rThumb3
                  {
                    OFFSET -0.993472 -0.621916 0.655506
                    CHANNELS 6 Xposition Yposition Zposition Zrotation Xrotation Yrotation
                    End Site
                    {
                      OFFSET -0.996134 -0.66263 0.644615
                    }
                  }
                }
              }
              JOINT rIndex1
              {
                OFFSET -2.64253 0.566363 2.4162
                CHANNELS 6 Xposition Yposition Zposition Zrotation Xrotation Yrotation
                JOINT rIndex2
                {
                  OFFSET -1.39394 -0.635138 0.899356
                  CHANNELS 6 Xposition Yposition Zposition Zrotation Xrotation Yrotation
                  JOINT rIndex3
                  {
                    OFFSET -0.622395 -0.856016 0.402182
                    CHANNELS 6 Xposition Yposition Zposition Zrotation Xrotation Yrotation
                    End Site
                    {
                      OFFSET -0.472476 -0.801802 0.34216
                    }
                  }
                }
              }
              JOINT rMid1
              {
                OFFSET -3.20814 0.514427 1.52547
                CHANNELS 6 Xposition Yposition Zposition Zrotation Xrotation Yrotation
                JOINT rMid2
                {
                  OFFSET -1.56545 -0.497974 0.68919
                  CHANNELS 6 Xposition Yposition Zposition Zrotation Xrotation Yrotation
                  JOINT rMid3
                  {
                    OFFSET -0.679943 -1.17582 0.444246
                    CHANNELS 6 Xposition Yposition Zposition Zrotation Xrotation Yrotation
                    End Site
                    {
                      OFFSET -0.343874 -0.941341 0.267611
                    }
                  }
                }
              }
              JOINT rRing1
              {
                OFFSET -3.47877 0.200518 0.597719
                CHANNELS 6 Xposition Yposition Zposition Zrotation Xrotation Yrotation
                JOINT rRing2
                {
                  OFFSET -1.28208 -0.53155 0.44672
                  CHANNELS 6 Xposition Yposition Zposition Zrotation Xrotation Yrotation
                  JOINT rRing3
                  {
                    OFFSET -0.710288 -0.970167 0.4032
                    CHANNELS 6 Xposition Yposition Zposition Zrotation Xrotation Yrotation
                    End Site
                    {
                      OFFSET -0.403228 -0.950952 0.378354
                    }
                  }
                }
              }
              JOINT rPinky1
              {
                OFFSET -3.42483 -0.278904 -0.240415
                CHANNELS 6 Xposition Yposition Zposition Zrotation Xrotation Yrotation
                JOINT rPinky2
                {
                  OFFSET -1.05787 -0.635999 0.156459
                  CHANNELS 6 Xposition Yposition Zposition Zrotation Xrotation Yrotation
                  JOINT rPinky3
                  {
                    OFFSET -0.42815 -0.754232 0.287187
                    CHANNELS 6 Xposition Yposition Zposition Zrotation Xrotation Yrotation
                    End Site
                    {
                      OFFSET -0.235717 -0.725605 0.279416
                    }
                  }
                }
              }
            }
          }
        }
      }
      JOINT lCollar
      {
        OFFSET 1.4963 7.5744 -1.52136
        CHANNELS 6 Xposition Yposition Zposition Zrotation Xrotation Yrotation
        JOINT lShldr
        {
          OFFSET 5.47506 -0.905672 0.485692
          CHANNELS 6 Xposition Yposition Zposition Zrotation Xrotation Yrotation
          JOINT lForeArm
          {
            OFFSET 11.3069 -0.201091 0.618544
            CHANNELS 6 Xposition Yposition Zposition Zrotation Xrotation Yrotation
            JOINT lHand
            {
              OFFSET 9.61414 -0.254739 3.48553
              CHANNELS 6 Xposition Yposition Zposition Zrotation Xrotation Yrotation
              JOINT lThumb1
              {
                OFFSET -0.176263 -0.07068 1.26622
                CHANNELS 6 Xposition Yposition Zposition Zrotation Xrotation Yrotation
                JOINT lThumb2
                {
                  OFFSET 1.04683 -0.546484 1.82182
                  CHANNELS 6 Xposition Yposition Zposition Zrotation Xrotation Yrotation
                  JOINT lThumb3
                  {
                    OFFSET 0.993472 -0.621916 0.655506
                    CHANNELS 6 Xposition Yposition Zposition Zrotation Xrotation Yrotation
                    End Site
                    {
                      OFFSET 0.996134 -0.66263 0.644615
                    }
                  }
                }
              }
              JOINT lIndex1
              {
                OFFSET 2.64253 0.566363 2.4162
                CHANNELS 6 Xposition Yposition Zposition Zrotation Xrotation Yrotation
                JOINT lIndex2
                {
                  OFFSET 1.39394 -0.635138 0.899356
                  CHANNELS 6 Xposition Yposition Zposition Zrotation Xrotation Yrotation
                  JOINT lIndex3
                  {
                    OFFSET 0.622395 -0.856016 0.402182
                    CHANNELS 6 Xposition Yposition Zposition Zrotation Xrotation Yrotation
                    End Site
                    {
                      OFFSET 0.472476 -0.801802 0.34216
                    }
                  }
                }
              }
              JOINT lMid1
              {
                OFFSET 3.20814 0.514427 1.52547
                CHANNELS 6 Xposition Yposition Zposition Zrotation Xrotation Yrotation
                JOINT lMid2
                {
                  OFFSET 1.56545 -0.497974 0.68919
                  CHANNELS 6 Xposition Yposition Zposition Zrotation Xrotation Yrotation
                  JOINT lMid3
                  {
                    OFFSET 0.679943 -1.17582 0.444246
                    CHANNELS 6 Xposition Yposition Zposition Zrotation Xrotation Yrotation
                    End Site
                    {
                      OFFSET 0.343874 -0.941341 0.267611
                    }
                  }
                }
              }
              JOINT lRing1
              {
                OFFSET 3.47877 0.200518 0.597719
                CHANNELS 6 Xposition Yposition Zposition Zrotation Xrotation Yrotation
                JOINT lRing2
                {
                  OFFSET 1.28208 -0.53155 0.44672
                  CHANNELS 6 Xposition Yposition Zposition Zrotation Xrotation Yrotation
                  JOINT lRing3
                  {
                    OFFSET 0.710288 -0.970167 0.4032
                    CHANNELS 6 Xposition Yposition Zposition Zrotation Xrotation Yrotation
                    End Site
                    {
                      OFFSET 0.403228 -0.950952 0.378354
                    }
                  }
                }
              }
              JOINT lPinky1
              {
                OFFSET 3.42483 -0.278904 -0.240415
                CHANNELS 6 Xposition Yposition Zposition Zrotation Xrotation Yrotation
                JOINT lPinky2
                {
                  OFFSET 1.05787 -0.635999 0.156459
                  CHANNELS 6 Xposition Yposition Zposition Zrotation Xrotation Yrotation
                  JOINT lPinky3
                  {
                    OFFSET 0.42815 -0.754232 0.287187
                    CHANNELS 6 Xposition Yposition Zposition Zrotation Xrotation Yrotation
                    End Site
                    {
                      OFFSET 0.235717 -0.725605 0.279416
                    }
                  }
                }
              }
            }
          }
        }
      }
    }
  }
  JOINT rThigh
  {
    OFFSET -4.17848 -1.02486 0.046356
    CHANNELS 6 Xposition Yposition Zposition Zrotation Xrotation Yrotation
    JOINT rShin
    {
      OFFSET 1.27155 -17.465 -0.237699
      CHANNELS 6 Xposition Yposition Zposition Zrotation Xrotation Yrotation
      JOINT rFoot
      {
        OFFSET 0.529163 -17.3815 -1.19582
        CHANNELS 6 Xposition Yposition Zposition Zrotation Xrotation Yrotation
        JOINT rToe
        {
          OFFSET -0.711591 -4.4863 4.0596
          CHANNELS 6 Xposition Yposition Zposition Zrotation Xrotation Yrotation
          End Site
          {
            OFFSET -0.869915 -1.10655 1.99006
          }
        }
      }
    }
  }
  JOINT lThigh
  {
    OFFSET 4.17848 -1.02486 0.046356
    CHANNELS 6 Xposition Yposition Zposition Zrotation Xrotation Yrotation
    JOINT lShin
    {
      OFFSET -1.27155 -17.465 -0.237699
      CHANNELS 6 Xposition Yposition Zposition Zrotation Xrotation Yrotation
      JOINT lFoot
      {
        OFFSET -0.529163 -17.3815 -1.19582
        CHANNELS 6 Xposition Yposition Zposition Zrotation Xrotation Yrotation
        JOINT lToe
        {
          OFFSET 0.711591 -4.4863 4.0596
          CHANNELS 6 Xposition Yposition Zposition Zrotation Xrotation Yrotation
          End Site
          {
            OFFSET 0.869915 -1.10655 1.99006
          }
        }
      }
    }
  }
}
MOTION
Frames:	4
Frame Time:	0.0333333
-29.7459 32.8014 22.5326 34.7797 -50.2988 -178.161 0 5.99393 0.287273 6.9253 11.8796 -5.62736 -4.44089e-015 6.65865 -0.856112 15.5165 22.9004 -13.1174 1.77636e-015 8.65624 -1.42685 -1.35906 -13.8848 -23.3595 -3.55271e-015 3.80999 -0.190247 43.3011 5.54081 0.983442 -1.4963 7.5744 -1.52136 -24.9931 0.412078 -26.2331 -5.47506 -0.905672 0.485692 31.2135 -24.3196 18.4558 -11.3069 -0.201091 0.618544 -27.6479 -34.1491 22.0207 -9.61414 -0.254739 3.48553 -175.205 -31.4036 171.335 0.176263 -0.07068 1.26622 -15.6872 50.412 18.5117 -1.04683 -0.546484 1.82182 -0.515946 0.557743 -1.5601 -0.993472 -0.621916 0.655506 -4.17684 5.66801 -14.3267 -2.64253 0.566363 2.4162 -23.6213 5.47135 -14.5207 -1.39394 -0.635138 0.899356 39.8962 7.70368 -8.81736 -0.622395 -0.856016 0.402182 45.1911 8.19656 -10.3003 -3.20814 0.514427 1.52547 -0.840527 5.9496 -9.82414 -1.56545 -0.497974 0.68919 52.741 10.5331 -13.0892 -0.679943 -1.17582 0.444246 44.4809 9.78116 -10.5177 -3.47877 0.200518 0.597719 16.3707 -0.644854 -5.84605 -1.28208 -0.53155 0.44672 37.8363 9.71785 -10.3214 -0.710288 -0.970167 0.4032 39.1354 9.9111 -10.7658 -3.42483 -0.278904 -0.240415 24.5433 -1.90441 -2.26381 -1.05787 -0.635999 0.156459 31.0685 9.47917 -7.89251 -0.42815 -0.754232 0.287187 30.9983 9.46354 -7.86991 1.4963 7.5744 -1.52136 12.795 -3.68575 -32.6415 5.47506 -0.905672 0.485692 -43.8915 -15.8745 -72.3432 11.3069 -0.201091 0.618544 -21.6157 -3.66184 -70.3493 9.61414 -0.254739 3.48553 25.502 31.9115 16.2712 -0.176263 -0.07068 1.26622 24.2782 38.4818 -35.5021 1.04683 -0.546484 1.82182 -6.53179 -1.24817 -11.4632 0.993472 -0.621916 0.655506 6.45118 2.66723 11.8095 2.64253 0.566363 2.4162 -5.18976 4.48311 12.5249 1.39394 -0.635138 0.899356 -36.9452 6.74313 17.0314 0.622395 -0.856016 0.402182 -38.0065 6.76628 17.5558 3.20814 0.514427 1.52547 -1.48523 -0.683598 1.67108 1.56545 -0.497974 0.68919 -44.4869 8.35702 21.4002 0.679943 -1.17582 0.444246 -9.36103 3.19908 3.99158 3.47877 0.200518 0.597719 -8.07663 -2.63752 5.99021 1.28208 -0.53155 0.44672 -14.7811 5.15016 7.2948 0.710288 -0.970167 0.4032 -16.2802 5.55305 8.08454 3.42483 -0.278904 -0.240415 11.7678 -11.303 2.60137 1.05787 -0.635999 0.156459 -18.8959 6.82264 9.3829 0.42815 -0.754232 0.287187 -9.18832 3.76097 4.34953 -4.17848 -1.02486 0.046356 -82.4585 -72.1823 -118.641 1.27155 -17.465 -0.237699 40.5095 70.8545 -33.4751 0.529163 -17.3815 -1.19582 -2.69485 -7.99026 8.23421 -0.711591 -4.4863 4.0596 1.39687 -10.9091 -1.12318 4.17848 -1.02486 0.046356 149.841 -47.8919 162.26 -1.27155 -17.465 -0.237699 5.51777 64.6784 -5.46577 -0.529163 -17.3815 -1.19582 19.2439 3.65034 -23.2859 0.711591 -4.4863 4.0596 0.154731 3.66715 -0.241446 
-29.7287 33.785 22.5846 36.3262 -53.2024 -176.038 1.77636e-015 5.99393 0.287273 7.56028 11.5497 -5.16003 8.88178e-016 6.65865 -0.856112 16.6601 22.2387 -12.2155 -8.88178e-016 8.65624 -1.42685 -1.57301 -17.7817 -26.7554 0 3.80999 -0.190247 43.3659 7.1012 -0.671652 -1.4963 7.5744 -1.52136 -24.3321 0.510841 -29.456 -5.47506 -0.905672 0.485692 33.0725 -24.3855 19.2699 -11.3069 -0.201091 0.618544 -23.0846 -39.6179 27.4101 -9.61414 -0.254739 3.48553 -175.119 -37.272 173.591 0.176263 -0.07068 1.26622 -15.6872 50.412 18.5117 -1.04683 -0.546484 1.82182 -0.516025 0.557833 -1.56006 -0.993472 -0.621916 0.655506 -4.16946 5.65491 -14.2965 -2.64253 0.566363 2.4162 -23.6212 5.47118 -14.5208 -1.39394 -0.635138 0.899356 39.8962 7.7037 -8.81737 -0.622395 -0.856016 0.402182 45.1622 8.19424 -10.2921 -3.20814 0.514427 1.52547 -0.840514 5.94967 -9.82413 -1.56545 -0.497974 0.68919 52.741 10.5332 -13.0892 -0.679943 -1.17582 0.444246 44.4809 9.7812 -10.5177 -3.47877 0.200518 0.597719 16.3707 -0.644772 -5.84608 -1.28208 -0.53155 0.44672 37.8363 9.71789 -10.3214 -0.710288 -0.970167 0.4032 39.1354 9.9112 -10.7658 -3.42483 -0.278904 -0.240415 24.5434 -1.90437 -2.26381 -1.05787 -0.635999 0.156459 31.0685 9.47902 -7.89256 -0.42815 -0.754232 0.287187 30.9983 9.46351 -7.86989 1.4963 7.5744 -1.52136 12.4486 -3.79298 -35.1045 5.47506 -0.905672 0.485692 -42.0862 -17.4386 -70.3495 11.3069 -0.201091 0.618544 -21.5609 -4.48679 -74.1814 9.61414 -0.254739 3.48553 23.1116 33.2558 18.2893 -0.176263 -0.07068 1.26622 24.2782 38.4818 -35.5021 1.04683 -0.546484 1.82182 -6.53179 -1.24817 -11.4632 0.993472 -0.621916 0.655506 6.45117 2.66721 11.8095 2.64253 0.566363 2.4162 -5.18977 4.48311 12.5249 1.39394 -0.635138 0.899356 -36.9452 6.74308 17.0314 0.622395 -0.856016 0.402182 -38.0065 6.76628 17.5558 3.20814 0.514427 1.52547 -1.48524 -0.683592 1.67107 1.56545 -0.497974 0.68919 -44.4869 8.35702 21.4002 0.679943 -1.17582 0.444246 -9.36101 3.19907 3.99157 3.47877 0.200518 0.597719 -8.07664 -2.63753 5.99021 1.28208 -0.53155 0.44672 -14.7811 5.15017 7.2948 0.710288 -0.970167 0.4032 -16.2802 5.55305 8.08454 3.42483 -0.278904 -0.240415 11.7677 -11.303 2.60137 1.05787 -0.635999 0.156459 -18.8959 6.82267 9.38288 0.42815 -0.754232 0.287187 -9.18833 3.76104 4.34943 -4.17848 -1.02486 0.046356 -87.5592 -75.6489 -123.268 1.27155 -17.465 -0.237699 31.2084 67.1489 -24.5895 0.529163 -17.3815 -1.19582 -1.69346 -8.82158 5.90119 -0.711591 -4.4863 4.0596 1.6777 -9.76602 -1.25416 4.17848 -1.02486 0.046356 150.122 -48.5994 162.773 -1.27155 -17.465 -0.237699 4.20942 59.4438 -4.08726 -0.529163 -17.3815 -1.19582 18.028 5.02712 -24.6232 0.711591 -4.4863 4.0596 0.280436 2.85721 -0.200713 
-29.6623 34.6531 22.5699 37.519 -54.8062 -174.381 -3.55271e-015 5.99393 0.287273 7.99781 11.4264 -5.07401 -1.77636e-015 6.65865 -0.856112 17.5158 21.9559 -12.0976 -3.55271e-015 8.65624 -1.42685 -1.73049 -20.8329 -28.8691 -3.55271e-015 3.80999 -0.190247 43.2726 8.45323 -1.98769 -1.4963 7.5744 -1.52136 -23.5673 0.58174 -31.5921 -5.47506 -0.905672 0.485692 34.7813 -24.0542 20.256 -11.3069 -0.201091 0.618544 -17.9291 -43.9425 34.0783 -9.61414 -0.254739 3.48553 -174.575 -42.3136 176.586 0.176263 -0.07068 1.26622 -15.6873 50.4121 18.5118 -1.04683 -0.546484 1.82182 -0.515884 0.557685 -1.56015 -0.993472 -0.621916 0.655506 -4.16209 5.6418 -14.2663 -2.64253 0.566363 2.4162 -23.6212 5.47119 -14.5208 -1.39394 -0.635138 0.899356 39.8962 7.70373 -8.81738 -0.622395 -0.856016 0.402182 45.1332 8.19192 -10.2838 -3.20814 0.514427 1.52547 -0.840504 5.94955 -9.82414 -1.56545 -0.497974 0.68919 52.741 10.5331 -13.0892 -0.679943 -1.17582 0.444246 44.4809 9.78128 -10.5177 -3.47877 0.200518 0.597719 16.3707 -0.64494 -5.84606 -1.28208 -0.53155 0.44672 37.8362 9.71794 -10.3214 -0.710288 -0.970167 0.4032 39.1355 9.91101 -10.7658 -3.42483 -0.278904 -0.240415 24.5433 -1.90431 -2.26383 -1.05787 -0.635999 0.156459 31.0686 9.47904 -7.89255 -0.42815 -0.754232 0.287187 30.9983 9.46356 -7.86991 1.4963 7.5744 -1.52136 12.6397 -3.83828 -36.2561 5.47506 -0.905672 0.485692 -40.9977 -18.0185 -67.8955 11.3069 -0.201091 0.618544 -21.9408 -5.5159 -78.1014 9.61414 -0.254739 3.48553 21.1327 34.7909 19.6592 -0.176263 -0.07068 1.26622 24.2782 38.4819 -35.5021 1.04683 -0.546484 1.82182 -6.5318 -1.24819 -11.4632 0.993472 -0.621916 0.655506 6.45117 2.66721 11.8095 2.64253 0.566363 2.4162 -5.18977 4.4831 12.5249 1.39394 -0.635138 0.899356 -36.9452 6.74301 17.0313 0.622395 -0.856016 0.402182 -38.0065 6.76625 17.5558 3.20814 0.514427 1.52547 -1.48523 -0.68361 1.67107 1.56545 -0.497974 0.68919 -44.4869 8.35702 21.4002 0.679943 -1.17582 0.444246 -9.36102 3.19909 3.99158 3.47877 0.200518 0.597719 -8.07666 -2.63758 5.99021 1.28208 -0.53155 0.44672 -14.781 5.1502 7.29479 0.710288 -0.970167 0.4032 -16.2802 5.55304 8.08454 3.42483 -0.278904 -0.240415 11.7677 -11.3031 2.60138 1.05787 -0.635999 0.156459 -18.8959 6.82263 9.38289 0.42815 -0.754232 0.287187 -9.18831 3.76106 4.34941 -4.17848 -1.02486 0.046356 -90.4042 -78.7438 -125.06 1.27155 -17.465 -0.237699 25.0314 63.4242 -18.7915 0.529163 -17.3815 -1.19582 -0.920767 -9.20375 3.74026 -0.711591 -4.4863 4.0596 1.93738 -8.80589 -1.37734 4.17848 -1.02486 0.046356 149.684 -50.0215 162.103 -1.27155 -17.465 -0.237699 3.43504 55.0101 -3.27235 -0.529163 -17.3815 -1.19582 16.5165 5.77747 -25.2693 0.711591 -4.4863 4.0596 0.455154 1.65061 -0.134826 
-29.5308 35.4367 22.4875 38.8224 -56.219 -172.686 -1.77636e-015 5.99393 0.287273 8.48086 11.1582 -4.92186 -8.88178e-016 6.65865 -0.856112 18.4232 21.3931 -11.8179 8.88178e-016 8.65624 -1.42685 -1.89189 -23.4054 -31.0125 3.55271e-015 3.80999 -0.190247 42.9823 9.53363 -3.03454 -1.4963 7.5744 -1.52136 -23.152 0.644378 -33.5546 -5.47506 -0.905672 0.485692 36.3214 -23.1957 20.8902 -11.3069 -0.201091 0.618544 -12.6496 -47.237 41.5325 -9.61414 -0.254739 3.48553 -173.369 -46.6291 -179.797 0.176263 -0.07068 1.26622 -15.6873 50.4122 18.5118 -1.04683 -0.546484 1.82182 -0.515887 0.557679 -1.56014 -0.993472 -0.621916 0.655506 -4.15471 5.62871 -14.2362 -2.64253 0.566363 2.4162 -23.6213 5.47125 -14.5208 -1.39394 -0.635138 0.899356 39.8962 7.70377 -8.81741 -0.622395 -0.856016 0.402182 45.0965 8.18899 -10.2734 -3.20814 0.514427 1.52547 -0.840489 5.94957 -9.82413 -1.56545 -0.497974 0.68919 52.741 10.5331 -13.0892 -0.679943 -1.17582 0.444246 44.4809 9.78112 -10.5177 -3.47877 0.200518 0.597719 16.3707 -0.644927 -5.84606 -1.28208 -0.53155 0.44672 37.8363 9.71782 -10.3214 -0.710288 -0.970167 0.4032 39.1354 9.91102 -10.7658 -3.42483 -0.278904 -0.240415 24.5434 -1.90444 -2.2638 -1.05787 -0.635999 0.156459 31.0685 9.47905 -7.89255 -0.42815 -0.754232 0.287187 30.9983 9.46358 -7.86989 1.4963 7.5744 -1.52136 12.5965 -3.88758 -37.5877 5.47506 -0.905672 0.485692 -40.2765 -18.2683 -64.9808 11.3069 -0.201091 0.618544 -22.9462 -6.04976 -81.7759 9.61414 -0.254739 3.48553 19.7722 36.4297 20.2629 -0.176263 -0.07068 1.26622 24.2783 38.4819 -35.5021 1.04683 -0.546484 1.82182 -6.5318 -1.24821 -11.4632 0.993472 -0.621916 0.655506 6.45117 2.6672 11.8095 2.64253 0.566363 2.4162 -5.18978 4.48312 12.5249 1.39394 -0.635138 0.899356 -36.9452 6.74315 17.0314 0.622395 -0.856016 0.402182 -38.0065 6.76622 17.5558 3.20814 0.514427 1.52547 -1.48526 -0.683613 1.67107 1.56545 -0.497974 0.68919 -44.4869 8.35703 21.4002 0.679943 -1.17582 0.444246 -9.36102 3.19908 3.99157 3.47877 0.200518 0.597719 -8.07671 -2.63764 5.99019 1.28208 -0.53155 0.44672 -14.7811 5.15018 7.2948 0.710288 -0.970167 0.4032 -16.2802 5.55304 8.08455 3.42483 -0.278904 -0.240415 11.7677 -11.3031 2.60138 1.05787 -0.635999 0.156459 -18.8959 6.82263 9.38289 0.42815 -0.754232 0.287187 -9.18833 3.76105 4.34943 -4.17848 -1.02486 0.046356 -94.3888 -81.7059 -127.844 1.27155 -17.465 -0.237699 20.5264 59.6995 -14.6579 0.529163 -17.3815 -1.19582 -0.325937 -9.36289 1.38439 -0.711591 -4.4863 4.0596 2.16242 -8.13472 -1.48946 4.17848 -1.02486 0.046356 149.323 -51.4471 161.435 -1.27155 -17.465 -0.237699 2.90357 50.8833 -2.64948 -0.529163 -17.3815 -1.19582 15.6905 6.2827 -25.9939 0.711591 -4.4863 4.0596 0.566903 0.976853 -0.0971857 
